<svg xmlns="http://www.w3.org/2000/svg" xmlns:xlink="http://www.w3.org/1999/xlink" viewBox="0 0 146 40"><defs><style>.a{fill:url(#a);}.b{fill:#fff;}.c{fill:#181818;font-size:20px;}.c,.d{font-family:PantonMtav3-Bold, PantonMtav3;font-weight:700;}.d{fill:#6ab04c;font-size:10px;}</style><linearGradient id="a" x1="0.5" x2="0.5" y2="1" gradientUnits="objectBoundingBox"><stop offset="0" stop-color="#6ab04c"/><stop offset="1" stop-color="#badc58"/></linearGradient></defs><g transform="translate(-87 -112)"><rect class="a" width="40" height="40" rx="10" transform="translate(87 112)"/><g transform="translate(96.209 65.169)"><path class="b" d="M21.317,63.333h-1.6a.472.472,0,0,0-.327.131l-.341.327a17,17,0,0,0-2.514-4.008,3.146,3.146,0,0,0-2.444-1.158H7.7a3.145,3.145,0,0,0-2.444,1.158,16.614,16.614,0,0,0-2.519,4L2.4,63.465a.472.472,0,0,0-.327-.131H.472A.472.472,0,0,0,0,63.805V64.9a.472.472,0,0,0,.442.471l1.642.1a10.474,10.474,0,0,0-.442,3.33,4.253,4.253,0,0,0,.724,2.754V74.1a.4.4,0,0,0,.4.4H4.58a.4.4,0,0,0,.4-.4V72.521H16.814V74.1a.4.4,0,0,0,.4.4h1.818a.4.4,0,0,0,.4-.4V71.556a4.253,4.253,0,0,0,.724-2.754,10.474,10.474,0,0,0-.442-3.33l1.642-.1a.472.472,0,0,0,.442-.471V63.805A.472.472,0,0,0,21.317,63.333ZM6.6,60.887A1.409,1.409,0,0,1,7.7,60.368h6.4a1.41,1.41,0,0,1,1.095.519,16.447,16.447,0,0,1,1.871,2.773l-12.34,0A16.552,16.552,0,0,1,6.6,60.887Zm-1.345,9.7c-.9,0-1.638-.3-1.638-1.013s.266-1.3,1.171-1.3,2.106.581,2.106,1.3S6.161,70.588,5.256,70.588Zm7.356-.149H9.177a.94.94,0,0,1-.939-.939.263.263,0,0,1,.263-.263h4.787a.263.263,0,0,1,.263.263A.94.94,0,0,1,12.612,70.439Zm3.921.149c-.9,0-1.638-.3-1.638-1.013s1.2-1.3,2.106-1.3,1.171.581,1.171,1.3S17.438,70.588,16.533,70.588Z"/></g><text class="c" transform="translate(137 139)"><tspan x="0" y="0">nodmotors</tspan></text><text class="d" transform="translate(216 124)"><tspan x="0" y="0">LTD</tspan></text></g></svg>